<mxfile host="app.diagrams.net" modified="2024-02-12T20:06:25.151Z" agent="Mozilla/5.0 (Windows NT 10.0; Win64; x64) AppleWebKit/537.36 (KHTML, like Gecko) Chrome/120.0.0.0 YaBrowser/24.1.0.0 Safari/537.36" version="23.1.3" etag="uLyrL3gXCL0FYcnn3A-2" type="github">
  <diagram name="Страница — 1" id="0ysyW61IPfHBsqJ5m0NY">
    <mxGraphModel>
      <root>
        <mxCell id="0" />
        <mxCell id="1" parent="0" />
      </root>
    </mxGraphModel>
  </diagram>
</mxfile>
